# xmcd
#
# Track frame offsets:
#	150
#	10804
#	24670
#	35508
#	47278
#	59568
#	72354
#	83756
#	96566
#	109963
#	123893
#	136596
#	146934
#	157784
#	170956
#	185080
#	197140
#	207883
#	218421
#	230607
#	245090
#	258732
#	272973
#	285584
#	297045
#	308920
#	320984
#	335198
#	347363
#	359363
#
# Disc length: 4982 seconds
#
# Revision: 0
# Processed by: cddbd v1.5.2PL0 Copyright (c) Steve Scherf et al.
# Submitted via: audiograbber 1.83.01
#
DISCID=dd13741e
DTITLE=Chuck Berry - Rock And Roll Music - Any Old Way You Choose It [CD 01) - 
DTITLE=Studio 1954-1957
DYEAR=2014
DGENRE=Rock and Roll
TTITLE0=Maybellene [mono 1955]
TTITLE1=Wee Wee Hours [mono 1955]
TTITLE2=Thirty Days (To Come Back Home) [mono 1955]
TTITLE3=Together (We Will Always Be) [mono 1955]
TTITLE4=You Can't Catch Me [mono 1956]
TTITLE5=Roly Poly [mono 1957]
TTITLE6=Berry Pickin' [instrumental] [mono 1957]
TTITLE7=(The) Down Bound Train [mono 1955]
TTITLE8=No Money Down [mono 1955]
TTITLE9=I've Changed [mono 1988]
TTITLE10=Drifting Heart [mono 1956]
TTITLE11=Brown Eyed Handsome Man [mono 1956]
TTITLE12=Roll Over Beethoven [mono 1956]
TTITLE13=Too Much Monkey Business [mono 1956]
TTITLE14=Havana Moon [mono 1956]
TTITLE15=Rock And Roll Music [demo] [mono 1979]
TTITLE16=Untitled Instrumental [mono 1990]
TTITLE17=Deep Feeling [instrumental] [mono 1957]
TTITLE18=School Day (Ring! Ring! Goes The Bell) [mono 1957]
TTITLE19=Lajaunda [Español] [mono 1957]
TTITLE20=Blue Feeling [instrumental] [mono 1957]
TTITLE21=Low Feeling [instrumental] [mono 1958]
TTITLE22=How You've Changed [mono 1958]
TTITLE23=Rock And Roll Music [mono 1957]
TTITLE24=Oh Baby Doll [mono 1957]
TTITLE25=13 Question Method [mono 1979]
TTITLE26=How High The Moon [instrumental] [mono 1963]
TTITLE27=Oh Maria [mono 1956]
TTITLE28=I Hope These Words Will Find You Well [mono 1954]]
TTITLE29=Sweet Little Sixteen [demo] [mono 1983]
EXTD=
EXTT0=
EXTT1=
EXTT2=
EXTT3=
EXTT4=
EXTT5=
EXTT6=
EXTT7=
EXTT8=
EXTT9=
EXTT10=
EXTT11=
EXTT12=
EXTT13=
EXTT14=
EXTT15=
EXTT16=
EXTT17=
EXTT18=
EXTT19=
EXTT20=
EXTT21=
EXTT22=
EXTT23=
EXTT24=
EXTT25=
EXTT26=
EXTT27=
EXTT28=
EXTT29=
PLAYORDER=
